<svg width="1200" height="28" viewBox="0 0 1200 28" fill="none" xmlns="http://www.w3.org/2000/svg" role="presentation">
  <g opacity="0.55">
    <rect x="0.0" y="12.0" width="3" height="4.0" rx="1.5" fill="#d11440" opacity="0.57"/>
    <rect x="10.0" y="12.0" width="3" height="4.0" rx="1.5" fill="#d11440" opacity="0.57"/>
    <rect x="20.0" y="12.0" width="3" height="4.0" rx="1.5" fill="#d11440" opacity="0.58"/>
    <rect x="30.0" y="12.0" width="3" height="4.0" rx="1.5" fill="#d11440" opacity="0.57"/>
    <rect x="40.0" y="6.2" width="3" height="15.7" rx="1.5" fill="#d11440" opacity="0.85"/>
    <rect x="50.0" y="7.6" width="3" height="12.8" rx="1.5" fill="#d11440" opacity="0.79"/>
    <rect x="60.0" y="10.2" width="3" height="7.6" rx="1.5" fill="#d11440" opacity="0.69"/>
    <rect x="70.0" y="6.4" width="3" height="15.2" rx="1.5" fill="#d11440" opacity="0.84"/>
    <rect x="80.0" y="10.4" width="3" height="7.2" rx="1.5" fill="#d11440" opacity="0.69"/>
    <rect x="90.0" y="7.0" width="3" height="13.9" rx="1.5" fill="#d11440" opacity="0.82"/>
    <rect x="100.0" y="10.1" width="3" height="7.8" rx="1.5" fill="#d11440" opacity="0.70"/>
    <rect x="110.0" y="9.9" width="3" height="8.1" rx="1.5" fill="#d11440" opacity="0.71"/>
    <rect x="120.0" y="7.1" width="3" height="13.8" rx="1.5" fill="#d11440" opacity="0.81"/>
    <rect x="130.0" y="12.0" width="3" height="4.0" rx="1.5" fill="#d11440" opacity="0.58"/>
    <rect x="140.0" y="12.0" width="3" height="4.0" rx="1.5" fill="#d11440" opacity="0.57"/>
    <rect x="150.0" y="12.0" width="3" height="4.0" rx="1.5" fill="#d11440" opacity="0.57"/>
    <rect x="160.0" y="5.4" width="3" height="17.2" rx="1.5" fill="#d11440" opacity="0.88"/>
    <rect x="170.0" y="2.7" width="3" height="22.6" rx="1.5" fill="#d11440" opacity="0.98"/>
    <rect x="180.0" y="5.8" width="3" height="16.4" rx="1.5" fill="#d11440" opacity="0.86"/>
    <rect x="190.0" y="7.3" width="3" height="13.3" rx="1.5" fill="#d11440" opacity="0.80"/>
    <rect x="200.0" y="2.4" width="3" height="23.1" rx="1.5" fill="#d11440" opacity="0.99"/>
    <rect x="210.0" y="10.3" width="3" height="7.4" rx="1.5" fill="#d11440" opacity="0.69"/>
    <rect x="220.0" y="3.4" width="3" height="21.1" rx="1.5" fill="#d11440" opacity="0.95"/>
    <rect x="230.0" y="8.3" width="3" height="11.5" rx="1.5" fill="#d11440" opacity="0.77"/>
    <rect x="240.0" y="9.5" width="3" height="9.0" rx="1.5" fill="#d11440" opacity="0.72"/>
    <rect x="250.0" y="9.7" width="3" height="8.6" rx="1.5" fill="#d11440" opacity="0.71"/>
    <rect x="260.0" y="8.1" width="3" height="11.8" rx="1.5" fill="#d11440" opacity="0.78"/>
    <rect x="270.0" y="3.8" width="3" height="20.4" rx="1.5" fill="#d11440" opacity="0.94"/>
    <rect x="280.0" y="12.0" width="3" height="4.0" rx="1.5" fill="#d11440" opacity="0.57"/>
    <rect x="290.0" y="12.0" width="3" height="4.0" rx="1.5" fill="#d11440" opacity="0.58"/>
    <rect x="300.0" y="12.0" width="3" height="4.0" rx="1.5" fill="#d11440" opacity="0.58"/>
    <rect x="310.0" y="7.6" width="3" height="12.9" rx="1.5" fill="#d11440" opacity="0.80"/>
    <rect x="320.0" y="6.1" width="3" height="15.9" rx="1.5" fill="#d11440" opacity="0.85"/>
    <rect x="330.0" y="10.2" width="3" height="7.6" rx="1.5" fill="#d11440" opacity="0.70"/>
    <rect x="340.0" y="10.2" width="3" height="7.6" rx="1.5" fill="#d11440" opacity="0.70"/>
    <rect x="350.0" y="9.0" width="3" height="10.1" rx="1.5" fill="#d11440" opacity="0.74"/>
    <rect x="360.0" y="4.9" width="3" height="18.1" rx="1.5" fill="#d11440" opacity="0.90"/>
    <rect x="370.0" y="7.1" width="3" height="13.8" rx="1.5" fill="#d11440" opacity="0.81"/>
    <rect x="380.0" y="8.0" width="3" height="11.9" rx="1.5" fill="#d11440" opacity="0.78"/>
    <rect x="390.0" y="5.7" width="3" height="16.5" rx="1.5" fill="#d11440" opacity="0.87"/>
    <rect x="400.0" y="12.0" width="3" height="4.0" rx="1.5" fill="#d11440" opacity="0.57"/>
    <rect x="410.0" y="12.0" width="3" height="4.0" rx="1.5" fill="#d11440" opacity="0.57"/>
    <rect x="420.0" y="12.0" width="3" height="4.0" rx="1.5" fill="#d11440" opacity="0.58"/>
    <rect x="430.0" y="12.0" width="3" height="4.0" rx="1.5" fill="#d11440" opacity="0.58"/>
    <rect x="440.0" y="8.6" width="3" height="10.7" rx="1.5" fill="#d11440" opacity="0.76"/>
    <rect x="450.0" y="5.8" width="3" height="16.3" rx="1.5" fill="#d11440" opacity="0.86"/>
    <rect x="460.0" y="6.3" width="3" height="15.5" rx="1.5" fill="#d11440" opacity="0.85"/>
    <rect x="470.0" y="3.3" width="3" height="21.4" rx="1.5" fill="#d11440" opacity="0.96"/>
    <rect x="480.0" y="4.5" width="3" height="18.9" rx="1.5" fill="#d11440" opacity="0.91"/>
    <rect x="490.0" y="8.3" width="3" height="11.5" rx="1.5" fill="#d11440" opacity="0.77"/>
    <rect x="500.0" y="12.0" width="3" height="4.0" rx="1.5" fill="#d11440" opacity="0.59"/>
    <rect x="510.0" y="12.0" width="3" height="4.0" rx="1.5" fill="#d11440" opacity="0.57"/>
    <rect x="520.0" y="12.0" width="3" height="4.0" rx="1.5" fill="#d11440" opacity="0.57"/>
    <rect x="530.0" y="12.0" width="3" height="4.0" rx="1.5" fill="#d11440" opacity="0.58"/>
  </g>
</svg>